<svg xmlns="http://www.w3.org/2000/svg" width="16" height="15" viewBox="0 0 16 15" fill="none"><path fill-rule="evenodd" clip-rule="evenodd" d="M0.651367 7.5C0.651367 5.51088 1.44154 3.60322 2.84807 2.1967C4.25459 0.790176 6.16224 0 8.15137 0C10.1405 0 12.0481 0.790176 13.4547 2.1967C14.8612 3.60322 15.6514 5.51088 15.6514 7.5C15.6514 9.48912 14.8612 11.3968 13.4547 12.8033C12.0481 14.2098 10.1405 15 8.15137 15C6.16224 15 4.25459 14.2098 2.84807 12.8033C1.44154 11.3968 0.651367 9.48912 0.651367 7.5ZM8.15137 1.0758C6.44756 1.0758 4.81354 1.75263 3.60877 2.9574C2.404 4.16217 1.72716 5.7962 1.72716 7.5C1.72716 9.2038 2.404 10.8378 3.60877 12.0426C4.81354 13.2474 6.44756 13.9242 8.15137 13.9242C9.85517 13.9242 11.4892 13.2474 12.694 12.0426C13.8987 10.8378 14.5756 9.2038 14.5756 7.5C14.5756 5.7962 13.8987 4.16217 12.694 2.9574C11.4892 1.75263 9.85517 1.0758 8.15137 1.0758ZM10.8171 4.83542C10.9232 4.9416 10.9829 5.08559 10.9829 5.23573C10.9829 5.38587 10.9232 5.52986 10.8171 5.63604L8.95199 7.5L10.8171 9.36396C10.9234 9.47028 10.9831 9.61448 10.9831 9.76483C10.9831 9.91519 10.9234 10.0594 10.8171 10.1657C10.7108 10.272 10.5666 10.3318 10.4162 10.3318C10.2658 10.3318 10.1216 10.272 10.0153 10.1657L8.15137 8.30062L6.28741 10.1657C6.23476 10.2184 6.17227 10.2601 6.10349 10.2886C6.0347 10.3171 5.96098 10.3318 5.88653 10.3318C5.81208 10.3318 5.73836 10.3171 5.66958 10.2886C5.6008 10.2601 5.5383 10.2184 5.48566 10.1657C5.43301 10.1131 5.39125 10.0506 5.36276 9.98179C5.33427 9.913 5.31961 9.83928 5.31961 9.76483C5.31961 9.69038 5.33427 9.61666 5.36276 9.54788C5.39125 9.4791 5.43301 9.4166 5.48566 9.36396L7.35075 7.5L5.48566 5.63604C5.37934 5.52972 5.31961 5.38552 5.31961 5.23517C5.31961 5.08481 5.37934 4.94061 5.48566 4.83429C5.59198 4.72797 5.73618 4.66824 5.88653 4.66824C6.03689 4.66824 6.18109 4.72797 6.28741 4.83429L8.15137 6.69938L10.0153 4.83429C10.0679 4.78156 10.1304 4.73973 10.1992 4.71118C10.268 4.68264 10.3417 4.66794 10.4162 4.66794C10.4907 4.66794 10.5644 4.68264 10.6332 4.71118C10.702 4.73973 10.7645 4.78269 10.8171 4.83542Z" fill="#F42A42"></path></svg>