<svg xmlns="http://www.w3.org/2000/svg" width="64" height="64" viewBox="0 0 64 64" fill="none"><g id="Confetti"><path id="Vector" d="M27.8727 13.1575C27.403 12.689 26.8228 12.3464 26.1857 12.1612C25.5486 11.976 24.8752 11.9543 24.2275 12.0981C23.5798 12.2418 22.9788 12.5463 22.4798 12.9836C21.9809 13.4209 21.6001 13.9768 21.3727 14.6L8.25019 50.695C8.03462 51.2902 7.96498 51.9285 8.04714 52.5562C8.12929 53.1839 8.36083 53.7827 8.72232 54.3024C9.0838 54.8221 9.56469 55.2475 10.1246 55.5429C10.6845 55.8383 11.3071 55.995 11.9402 56C12.4063 55.9968 12.8682 55.9122 13.3052 55.75L49.3977 42.625C50.0211 42.3978 50.5773 42.0173 51.0148 41.5184C51.4523 41.0196 51.7572 40.4186 51.9012 39.7709C52.0451 39.1232 52.0236 38.4497 51.8387 37.8125C51.6537 37.1752 51.3111 36.5949 50.8427 36.125L27.8727 13.1575ZM25.7902 46.96L17.0402 38.21L20.3302 29.1575L34.8427 43.67L25.7902 46.96ZM12.0402 51.96L15.5402 42.3575L21.6527 48.47L12.0402 51.96ZM39.0002 42.16L21.8402 25L25.0902 16.0325L47.9477 38.89L39.0002 42.16ZM40.0002 18C40.0378 16.6479 40.3651 15.3197 40.9602 14.105C42.2852 11.4575 44.7852 10 48.0002 10C49.6752 10 50.7502 9.4275 51.4127 8.1975C51.7615 7.50937 51.9617 6.75554 52.0002 5.985C52.0022 5.45457 52.2148 4.94665 52.5913 4.57298C52.9678 4.19932 53.4773 3.99051 54.0077 3.9925C54.5381 3.99449 55.046 4.20711 55.4197 4.58359C55.7934 4.96007 56.0022 5.46957 56.0002 6C56.0002 9.215 53.8702 14 48.0002 14C46.3252 14 45.2502 14.5725 44.5877 15.8025C44.2388 16.4906 44.0387 17.2445 44.0002 18.015C43.9992 18.2776 43.9465 18.5375 43.8451 18.7798C43.7437 19.0221 43.5955 19.242 43.4091 19.427C43.2227 19.612 43.0017 19.7585 42.7586 19.8581C42.5156 19.9577 42.2553 20.0085 41.9927 20.0075C41.73 20.0065 41.4702 19.9538 41.2279 19.8524C40.9856 19.751 40.7657 19.6028 40.5807 19.4164C40.3956 19.23 40.2492 19.009 40.1496 18.7659C40.05 18.5229 39.9992 18.2626 40.0002 18ZM34.0002 10V4C34.0002 3.46957 34.2109 2.96086 34.586 2.58579C34.961 2.21071 35.4698 2 36.0002 2C36.5306 2 37.0393 2.21071 37.4144 2.58579C37.7895 2.96086 38.0002 3.46957 38.0002 4V10C38.0002 10.5304 37.7895 11.0391 37.4144 11.4142C37.0393 11.7893 36.5306 12 36.0002 12C35.4698 12 34.961 11.7893 34.586 11.4142C34.2109 11.0391 34.0002 10.5304 34.0002 10ZM59.4152 30.585C59.6008 30.7708 59.7481 30.9914 59.8485 31.2341C59.9489 31.4768 60.0005 31.737 60.0004 31.9996C60.0003 32.2623 59.9484 32.5224 59.8478 32.765C59.7472 33.0077 59.5998 33.2281 59.4139 33.4137C59.2281 33.5994 59.0075 33.7466 58.7648 33.8471C58.5221 33.9475 58.262 33.9991 57.9993 33.999C57.7366 33.9989 57.4766 33.947 57.2339 33.8464C56.9913 33.7458 56.7708 33.5983 56.5852 33.4125L52.5852 29.4125C52.2099 29.0372 51.9991 28.5282 51.9991 27.9975C51.9991 27.4668 52.2099 26.9578 52.5852 26.5825C52.9605 26.2072 53.4695 25.9964 54.0002 25.9964C54.5309 25.9964 55.0399 26.2072 55.4152 26.5825L59.4152 30.585ZM60.6327 19.8975L54.6327 21.8975C54.1294 22.0652 53.5802 22.0262 53.1057 21.789C52.6312 21.5517 52.2704 21.1357 52.1027 20.6325C51.9349 20.1293 51.974 19.58 52.2112 19.1055C52.4484 18.631 52.8644 18.2703 53.3677 18.1025L59.3677 16.1025C59.8709 15.9348 60.4202 15.9738 60.8947 16.211C61.3691 16.4483 61.7299 16.8643 61.8977 17.3675C62.0654 17.8707 62.0264 18.42 61.7892 18.8945C61.5519 19.369 61.1359 19.7297 60.6327 19.8975Z" fill="url(#paint0_linear_291_3178)"></path></g><defs><linearGradient id="paint0_linear_291_3178" x1="62.0003" y1="29" x2="8.01367" y2="29" gradientUnits="userSpaceOnUse"><stop stop-color="#632556"></stop><stop offset="1" stop-color="#901D28"></stop></linearGradient></defs></svg>