<svg xmlns="http://www.w3.org/2000/svg" width="64" height="64" viewBox="0 0 64 64" fill="none"><g id="UsersThree"><g id="Vector"><path d="M61.1998 37.6C60.9897 37.7576 60.7506 37.8722 60.4961 37.9374C60.2417 38.0026 59.9769 38.017 59.7169 37.9799C59.4569 37.9427 59.2068 37.8547 58.9808 37.7209C58.7548 37.5871 58.5574 37.4101 58.3998 37.2C57.1943 35.5796 55.6252 34.265 53.8189 33.3618C52.0125 32.4586 50.0193 31.9921 47.9998 32C47.6065 31.9999 47.2219 31.884 46.8942 31.6665C46.5665 31.4491 46.3102 31.1398 46.1573 30.7775C46.0535 30.5314 46 30.267 46 30C46 29.7329 46.0535 29.4685 46.1573 29.2225C46.3102 28.8601 46.5665 28.5509 46.8942 28.3334C47.2219 28.116 47.6065 28 47.9998 28C49.122 27.9999 50.2216 27.6851 51.1739 27.0913C52.1261 26.4976 52.8927 25.6487 53.3867 24.6411C53.8807 23.6335 54.0822 22.5075 53.9683 21.3911C53.8544 20.2747 53.4297 19.2127 52.7425 18.3255C52.0553 17.4384 51.133 16.7618 50.0805 16.3725C49.028 15.9833 47.8875 15.897 46.7884 16.1234C45.6893 16.3499 44.6757 16.8801 43.8628 17.6537C43.05 18.4273 42.4703 19.4134 42.1898 20.5C42.1241 20.7544 42.009 20.9934 41.851 21.2034C41.6929 21.4133 41.4951 21.5901 41.2687 21.7236C41.0424 21.857 40.792 21.9446 40.5318 21.9813C40.2716 22.018 40.0067 22.0031 39.7523 21.9375C39.4978 21.8718 39.2588 21.7567 39.0489 21.5987C38.839 21.4406 38.6622 21.2428 38.5287 21.0164C38.3952 20.7901 38.3076 20.5397 38.2709 20.2795C38.2342 20.0193 38.2491 19.7544 38.3148 19.5C38.7042 17.9933 39.4398 16.5982 40.4633 15.4259C41.4867 14.2535 42.7696 13.3362 44.2099 12.7469C45.6502 12.1575 47.2082 11.9125 48.7599 12.0313C50.3116 12.1501 51.8141 12.6294 53.148 13.431C54.4818 14.2327 55.6102 15.3346 56.4432 16.649C57.2763 17.9635 57.7911 19.4542 57.9466 21.0027C58.1021 22.5511 57.8942 24.1145 57.3392 25.5684C56.7842 27.0222 55.8975 28.3265 54.7498 29.3775C57.4693 30.555 59.8334 32.4235 61.6073 34.7975C61.7649 35.0081 61.8793 35.2478 61.9441 35.5028C62.009 35.7577 62.0228 36.0229 61.985 36.2833C61.9471 36.5436 61.8583 36.7939 61.7235 37.0198C61.5888 37.2458 61.4108 37.4429 61.1998 37.6ZM47.7298 53C47.8745 53.2276 47.9717 53.4822 48.0154 53.7483C48.0592 54.0145 48.0487 54.2868 47.9845 54.5488C47.9203 54.8107 47.8038 55.057 47.642 55.2728C47.4802 55.4886 47.2764 55.6695 47.0428 55.8045C46.8093 55.9395 46.5509 56.0258 46.2831 56.0583C46.0153 56.0909 45.7438 56.0689 45.4847 55.9937C45.2257 55.9186 44.9845 55.7918 44.7757 55.621C44.5669 55.4502 44.3948 55.239 44.2698 55C43.0099 52.8667 41.2156 51.0987 39.0638 49.8705C36.9121 48.6423 34.4774 47.9963 31.9998 47.9963C29.5222 47.9963 27.0874 48.6423 24.9357 49.8705C22.784 51.0987 20.9897 52.8667 19.7298 55C19.6048 55.239 19.4327 55.4502 19.2239 55.621C19.0151 55.7918 18.7739 55.9186 18.5149 55.9937C18.2558 56.0689 17.9842 56.0909 17.7164 56.0583C17.4487 56.0258 17.1903 55.9395 16.9567 55.8045C16.7232 55.6695 16.5194 55.4886 16.3576 55.2728C16.1957 55.057 16.0792 54.8107 16.015 54.5488C15.9509 54.2868 15.9404 54.0145 15.9841 53.7483C16.0279 53.4822 16.1251 53.2276 16.2698 53C18.2088 49.6684 21.1653 47.0467 24.7048 45.52C22.7131 43.9951 21.2494 41.8844 20.5193 39.4846C19.7892 37.0847 19.8295 34.5165 20.6346 32.1407C21.4396 29.765 22.9689 27.7013 25.0075 26.2397C27.046 24.778 29.4914 23.992 31.9998 23.992C34.5082 23.992 36.9535 24.778 38.9921 26.2397C41.0307 27.7013 42.56 29.765 43.365 32.1407C44.17 34.5165 44.2104 37.0847 43.4803 39.4846C42.7502 41.8844 41.2865 43.9951 39.2948 45.52C42.8343 47.0467 45.7908 49.6684 47.7298 53ZM31.9998 44C33.582 44 35.1287 43.5308 36.4443 42.6517C37.7599 41.7727 38.7853 40.5233 39.3908 39.0614C39.9963 37.5996 40.1547 35.9911 39.8461 34.4393C39.5374 32.8874 38.7755 31.4619 37.6566 30.3431C36.5378 29.2243 35.1124 28.4624 33.5605 28.1537C32.0087 27.845 30.4001 28.0034 28.9383 28.6089C27.4765 29.2144 26.2271 30.2398 25.348 31.5554C24.469 32.871 23.9998 34.4177 23.9998 36C23.9998 38.1217 24.8426 40.1565 26.3429 41.6568C27.8432 43.1571 29.878 44 31.9998 44ZM17.9998 30C17.9998 29.4695 17.7891 28.9608 17.414 28.5858C17.0389 28.2107 16.5302 28 15.9998 28C14.8776 27.9999 13.7779 27.6851 12.8257 27.0913C11.8735 26.4976 11.1068 25.6487 10.6129 24.6411C10.1189 23.6335 9.91741 22.5075 10.0313 21.3911C10.1452 20.2747 10.5698 19.2127 11.2571 18.3255C11.9443 17.4384 12.8665 16.7618 13.919 16.3725C14.9715 15.9833 16.1121 15.897 17.2112 16.1234C18.3103 16.3499 19.3238 16.8801 20.1367 17.6537C20.9496 18.4273 21.5292 19.4134 21.8098 20.5C21.9424 21.0138 22.2737 21.454 22.7308 21.7236C23.1879 21.9931 23.7334 22.0701 24.2473 21.9375C24.7611 21.8049 25.2013 21.4736 25.4709 21.0164C25.7404 20.5593 25.8174 20.0138 25.6848 19.5C25.2954 17.9933 24.5597 16.5982 23.5363 15.4259C22.5129 14.2535 21.23 13.3362 19.7897 12.7469C18.3493 12.1575 16.7914 11.9125 15.2397 12.0313C13.688 12.1501 12.1855 12.6294 10.8516 13.431C9.51774 14.2327 8.38939 15.3346 7.55633 16.649C6.72327 17.9635 6.20849 19.4542 6.05295 21.0027C5.89741 22.5511 6.10541 24.1145 6.66039 25.5684C7.21537 27.0222 8.10202 28.3265 9.24978 29.3775C6.53299 30.5561 4.17157 32.4245 2.39978 34.7975C2.08119 35.2218 1.94422 35.7554 2.019 36.2807C2.09378 36.806 2.37419 37.2801 2.79853 37.5987C3.22288 37.9173 3.7564 38.0543 4.28174 37.9795C4.80708 37.9047 5.28119 37.6243 5.59978 37.2C6.80525 35.5796 8.37432 34.265 10.1807 33.3618C11.987 32.4586 13.9802 31.9921 15.9998 32C16.5302 32 17.0389 31.7893 17.414 31.4142C17.7891 31.0391 17.9998 30.5304 17.9998 30Z" fill="#121212"></path><path d="M61.1998 37.6C60.9897 37.7576 60.7506 37.8722 60.4961 37.9374C60.2417 38.0026 59.9769 38.017 59.7169 37.9799C59.4569 37.9427 59.2068 37.8547 58.9808 37.7209C58.7548 37.5871 58.5574 37.4101 58.3998 37.2C57.1943 35.5796 55.6252 34.265 53.8189 33.3618C52.0125 32.4586 50.0193 31.9921 47.9998 32C47.6065 31.9999 47.2219 31.884 46.8942 31.6665C46.5665 31.4491 46.3102 31.1398 46.1573 30.7775C46.0535 30.5314 46 30.267 46 30C46 29.7329 46.0535 29.4685 46.1573 29.2225C46.3102 28.8601 46.5665 28.5509 46.8942 28.3334C47.2219 28.116 47.6065 28 47.9998 28C49.122 27.9999 50.2216 27.6851 51.1739 27.0913C52.1261 26.4976 52.8927 25.6487 53.3867 24.6411C53.8807 23.6335 54.0822 22.5075 53.9683 21.3911C53.8544 20.2747 53.4297 19.2127 52.7425 18.3255C52.0553 17.4384 51.133 16.7618 50.0805 16.3725C49.028 15.9833 47.8875 15.897 46.7884 16.1234C45.6893 16.3499 44.6757 16.8801 43.8628 17.6537C43.05 18.4273 42.4703 19.4134 42.1898 20.5C42.1241 20.7544 42.009 20.9934 41.851 21.2034C41.6929 21.4133 41.4951 21.5901 41.2687 21.7236C41.0424 21.857 40.792 21.9446 40.5318 21.9813C40.2716 22.018 40.0067 22.0031 39.7523 21.9375C39.4978 21.8718 39.2588 21.7567 39.0489 21.5987C38.839 21.4406 38.6622 21.2428 38.5287 21.0164C38.3952 20.7901 38.3076 20.5397 38.2709 20.2795C38.2342 20.0193 38.2491 19.7544 38.3148 19.5C38.7042 17.9933 39.4398 16.5982 40.4633 15.4259C41.4867 14.2535 42.7696 13.3362 44.2099 12.7469C45.6502 12.1575 47.2082 11.9125 48.7599 12.0313C50.3116 12.1501 51.8141 12.6294 53.148 13.431C54.4818 14.2327 55.6102 15.3346 56.4432 16.649C57.2763 17.9635 57.7911 19.4542 57.9466 21.0027C58.1021 22.5511 57.8942 24.1145 57.3392 25.5684C56.7842 27.0222 55.8975 28.3265 54.7498 29.3775C57.4693 30.555 59.8334 32.4235 61.6073 34.7975C61.7649 35.0081 61.8793 35.2478 61.9441 35.5028C62.009 35.7577 62.0228 36.0229 61.985 36.2833C61.9471 36.5436 61.8583 36.7939 61.7235 37.0198C61.5888 37.2458 61.4108 37.4429 61.1998 37.6ZM47.7298 53C47.8745 53.2276 47.9717 53.4822 48.0154 53.7483C48.0592 54.0145 48.0487 54.2868 47.9845 54.5488C47.9203 54.8107 47.8038 55.057 47.642 55.2728C47.4802 55.4886 47.2764 55.6695 47.0428 55.8045C46.8093 55.9395 46.5509 56.0258 46.2831 56.0583C46.0153 56.0909 45.7438 56.0689 45.4847 55.9937C45.2257 55.9186 44.9845 55.7918 44.7757 55.621C44.5669 55.4502 44.3948 55.239 44.2698 55C43.0099 52.8667 41.2156 51.0987 39.0638 49.8705C36.9121 48.6423 34.4774 47.9963 31.9998 47.9963C29.5222 47.9963 27.0874 48.6423 24.9357 49.8705C22.784 51.0987 20.9897 52.8667 19.7298 55C19.6048 55.239 19.4327 55.4502 19.2239 55.621C19.0151 55.7918 18.7739 55.9186 18.5149 55.9937C18.2558 56.0689 17.9842 56.0909 17.7164 56.0583C17.4487 56.0258 17.1903 55.9395 16.9567 55.8045C16.7232 55.6695 16.5194 55.4886 16.3576 55.2728C16.1957 55.057 16.0792 54.8107 16.015 54.5488C15.9509 54.2868 15.9404 54.0145 15.9841 53.7483C16.0279 53.4822 16.1251 53.2276 16.2698 53C18.2088 49.6684 21.1653 47.0467 24.7048 45.52C22.7131 43.9951 21.2494 41.8844 20.5193 39.4846C19.7892 37.0847 19.8295 34.5165 20.6346 32.1407C21.4396 29.765 22.9689 27.7013 25.0075 26.2397C27.046 24.778 29.4914 23.992 31.9998 23.992C34.5082 23.992 36.9535 24.778 38.9921 26.2397C41.0307 27.7013 42.56 29.765 43.365 32.1407C44.17 34.5165 44.2104 37.0847 43.4803 39.4846C42.7502 41.8844 41.2865 43.9951 39.2948 45.52C42.8343 47.0467 45.7908 49.6684 47.7298 53ZM31.9998 44C33.582 44 35.1287 43.5308 36.4443 42.6517C37.7599 41.7727 38.7853 40.5233 39.3908 39.0614C39.9963 37.5996 40.1547 35.9911 39.8461 34.4393C39.5374 32.8874 38.7755 31.4619 37.6566 30.3431C36.5378 29.2243 35.1124 28.4624 33.5605 28.1537C32.0087 27.845 30.4001 28.0034 28.9383 28.6089C27.4765 29.2144 26.2271 30.2398 25.348 31.5554C24.469 32.871 23.9998 34.4177 23.9998 36C23.9998 38.1217 24.8426 40.1565 26.3429 41.6568C27.8432 43.1571 29.878 44 31.9998 44ZM17.9998 30C17.9998 29.4695 17.7891 28.9608 17.414 28.5858C17.0389 28.2107 16.5302 28 15.9998 28C14.8776 27.9999 13.7779 27.6851 12.8257 27.0913C11.8735 26.4976 11.1068 25.6487 10.6129 24.6411C10.1189 23.6335 9.91741 22.5075 10.0313 21.3911C10.1452 20.2747 10.5698 19.2127 11.2571 18.3255C11.9443 17.4384 12.8665 16.7618 13.919 16.3725C14.9715 15.9833 16.1121 15.897 17.2112 16.1234C18.3103 16.3499 19.3238 16.8801 20.1367 17.6537C20.9496 18.4273 21.5292 19.4134 21.8098 20.5C21.9424 21.0138 22.2737 21.454 22.7308 21.7236C23.1879 21.9931 23.7334 22.0701 24.2473 21.9375C24.7611 21.8049 25.2013 21.4736 25.4709 21.0164C25.7404 20.5593 25.8174 20.0138 25.6848 19.5C25.2954 17.9933 24.5597 16.5982 23.5363 15.4259C22.5129 14.2535 21.23 13.3362 19.7897 12.7469C18.3493 12.1575 16.7914 11.9125 15.2397 12.0313C13.688 12.1501 12.1855 12.6294 10.8516 13.431C9.51774 14.2327 8.38939 15.3346 7.55633 16.649C6.72327 17.9635 6.20849 19.4542 6.05295 21.0027C5.89741 22.5511 6.10541 24.1145 6.66039 25.5684C7.21537 27.0222 8.10202 28.3265 9.24978 29.3775C6.53299 30.5561 4.17157 32.4245 2.39978 34.7975C2.08119 35.2218 1.94422 35.7554 2.019 36.2807C2.09378 36.806 2.37419 37.2801 2.79853 37.5987C3.22288 37.9173 3.7564 38.0543 4.28174 37.9795C4.80708 37.9047 5.28119 37.6243 5.59978 37.2C6.80525 35.5796 8.37432 34.265 10.1807 33.3618C11.987 32.4586 13.9802 31.9921 15.9998 32C16.5302 32 17.0389 31.7893 17.414 31.4142C17.7891 31.0391 17.9998 30.5304 17.9998 30Z" fill="url(#paint0_linear_291_3154)"></path></g></g><defs><linearGradient id="paint0_linear_291_3154" x1="62.0058" y1="34.0375" x2="1.99902" y2="34.0375" gradientUnits="userSpaceOnUse"><stop stop-color="#632556"></stop><stop offset="1" stop-color="#901D28"></stop></linearGradient></defs></svg>