<svg xmlns="http://www.w3.org/2000/svg" width="64" height="64" viewBox="0 0 64 64" fill="none"><g id="UserList" clip-path="url(#clip0_291_3170)"><path id="Vector" d="M36.0001 20C36.0001 19.4696 36.2108 18.9609 36.5858 18.5858C36.9609 18.2107 37.4696 18 38.0001 18H62.0001C62.5305 18 63.0392 18.2107 63.4143 18.5858C63.7894 18.9609 64.0001 19.4696 64.0001 20C64.0001 20.5304 63.7894 21.0391 63.4143 21.4142C63.0392 21.7893 62.5305 22 62.0001 22H38.0001C37.4696 22 36.9609 21.7893 36.5858 21.4142C36.2108 21.0391 36.0001 20.5304 36.0001 20ZM62.0001 30H38.0001C37.4696 30 36.9609 30.2107 36.5858 30.5858C36.2108 30.9609 36.0001 31.4696 36.0001 32C36.0001 32.5304 36.2108 33.0391 36.5858 33.4142C36.9609 33.7893 37.4696 34 38.0001 34H62.0001C62.5305 34 63.0392 33.7893 63.4143 33.4142C63.7894 33.0391 64.0001 32.5304 64.0001 32C64.0001 31.4696 63.7894 30.9609 63.4143 30.5858C63.0392 30.2107 62.5305 30 62.0001 30ZM62.0001 42H44.0001C43.4696 42 42.9609 42.2107 42.5858 42.5858C42.2108 42.9609 42.0001 43.4696 42.0001 44C42.0001 44.5304 42.2108 45.0391 42.5858 45.4142C42.9609 45.7893 43.4696 46 44.0001 46H62.0001C62.5305 46 63.0392 45.7893 63.4143 45.4142C63.7894 45.0391 64.0001 44.5304 64.0001 44C64.0001 43.4696 63.7894 42.9609 63.4143 42.5858C63.0392 42.2107 62.5305 42 62.0001 42ZM37.9376 47.5C38.0029 47.7544 38.0176 48.0193 37.9806 48.2793C37.9436 48.5394 37.8557 48.7897 37.722 49.0158C37.5883 49.2419 37.4113 49.4395 37.2012 49.5972C36.9911 49.7549 36.752 49.8697 36.4976 49.935C36.3346 49.9789 36.1664 50.0008 35.9976 50C35.554 50.0002 35.1229 49.853 34.7722 49.5814C34.4215 49.3099 34.171 48.9295 34.0601 48.5C32.5201 42.515 26.4751 38 19.9976 38C13.5201 38 7.47506 42.5125 5.93506 48.5C5.80246 49.0139 5.47115 49.454 5.01403 49.7236C4.55691 49.9932 4.01142 50.0701 3.49756 49.9375C2.98371 49.8049 2.54357 49.4736 2.27399 49.0165C2.00441 48.5593 1.92746 48.0139 2.06006 47.5C3.45756 42.0725 7.52006 37.6775 12.6751 35.5C10.6901 33.9711 9.23353 31.8594 8.50952 29.4608C7.78551 27.0622 7.83041 24.4972 8.63793 22.1255C9.44544 19.7537 10.9751 17.6942 13.0123 16.2358C15.0495 14.7773 17.4921 13.9931 19.9976 13.9931C22.503 13.9931 24.9456 14.7773 26.9828 16.2358C29.0201 17.6942 30.5497 19.7537 31.3572 22.1255C32.1647 24.4972 32.2096 27.0622 31.4856 29.4608C30.7616 31.8594 29.305 33.9711 27.3201 35.5C32.4776 37.6775 36.5401 42.0725 37.9376 47.5ZM20.0001 34C21.5823 34 23.129 33.5308 24.4446 32.6518C25.7602 31.7727 26.7856 30.5233 27.3911 29.0615C27.9966 27.5997 28.155 25.9911 27.8463 24.4393C27.5377 22.8874 26.7757 21.462 25.6569 20.3431C24.5381 19.2243 23.1126 18.4624 21.5608 18.1537C20.0089 17.845 18.4004 18.0035 16.9386 18.609C15.4768 19.2145 14.2274 20.2398 13.3483 21.5554C12.4693 22.871 12.0001 24.4177 12.0001 26C12.0001 28.1217 12.8429 30.1566 14.3432 31.6568C15.8435 33.1571 17.8783 34 20.0001 34Z" fill="url(#paint0_linear_291_3170)"></path></g><defs><linearGradient id="paint0_linear_291_3170" x1="64.0001" y1="31.997" x2="1.99658" y2="31.997" gradientUnits="userSpaceOnUse"><stop stop-color="#632556"></stop><stop offset="1" stop-color="#901D28"></stop></linearGradient><clipPath id="clip0_291_3170"><rect width="64" height="64" fill="white"></rect></clipPath></defs></svg>