<svg xmlns="http://www.w3.org/2000/svg" width="64" height="64" viewBox="0 0 64 64" fill="none"><g id="UserRectangle"><path id="Vector" d="M54 10H10C8.93913 10 7.92172 10.4214 7.17157 11.1716C6.42143 11.9217 6 12.9391 6 14V50C6 51.0609 6.42143 52.0783 7.17157 52.8284C7.92172 53.5786 8.93913 54 10 54H54C55.0609 54 56.0783 53.5786 56.8284 52.8284C57.5786 52.0783 58 51.0609 58 50V14C58 12.9391 57.5786 11.9217 56.8284 11.1716C56.0783 10.4214 55.0609 10 54 10ZM24 30C24 28.4177 24.4692 26.871 25.3482 25.5554C26.2273 24.2398 27.4767 23.2145 28.9385 22.609C30.4003 22.0035 32.0089 21.845 33.5607 22.1537C35.1126 22.4624 36.538 23.2243 37.6569 24.3431C38.7757 25.462 39.5376 26.8874 39.8463 28.4393C40.155 29.9911 39.9965 31.5997 39.391 33.0615C38.7855 34.5233 37.7602 35.7727 36.4446 36.6518C35.129 37.5308 33.5823 38 32 38C29.8783 38 27.8434 37.1571 26.3431 35.6569C24.8429 34.1566 24 32.1217 24 30ZM18.1425 50C19.5466 47.5672 21.5665 45.5469 23.9991 44.1422C26.4316 42.7376 29.191 41.9981 32 41.9981C34.809 41.9981 37.5684 42.7376 40.0009 44.1422C42.4335 45.5469 44.4534 47.5672 45.8575 50H18.1425ZM54 50H50.3325C48.2214 45.1788 44.2979 41.3819 39.41 39.43C41.3733 37.8887 42.8071 35.7736 43.5118 33.3792C44.2165 30.9847 44.157 28.4301 43.3417 26.0711C42.5263 23.712 40.9956 21.6659 38.9627 20.2177C36.9299 18.7695 34.496 17.9911 32 17.9911C29.504 17.9911 27.0701 18.7695 25.0373 20.2177C23.0044 21.6659 21.4737 23.712 20.6583 26.0711C19.843 28.4301 19.7835 30.9847 20.4882 33.3792C21.1929 35.7736 22.6267 37.8887 24.59 39.43C19.7021 41.3819 15.7786 45.1788 13.6675 50H10V14H54V50Z" fill="url(#paint0_linear_291_3162)"></path></g><defs><linearGradient id="paint0_linear_291_3162" x1="58" y1="32" x2="6" y2="32" gradientUnits="userSpaceOnUse"><stop stop-color="#632556"></stop><stop offset="1" stop-color="#901D28"></stop></linearGradient></defs></svg>